# xmcd CD database file
#
# Track frame offsets:
#	150
#	27277
#	55245
#	81767
#	112727
#	139930
#	163095
#	191405
#	223085
#	246432
#	273737
#	296360
#
# Disc length: 4217 seconds
#
# Revision: 2
# Processed by: cddbd v1.5.1PL0 Copyright (c) Steve Scherf et al.
# Submitted via: CDex 1.51
#
DISCID=b110770c
DTITLE=河本明子・他 - 天使のしっぽ DramaCD Vol.1
DYEAR=1900
DGENRE=Anime
TTITLE0=氷上恭子・河本明子/ヘビのユキ・出会い編
TTITLE1=氷上恭子・河本明子/ヘビのユキ・別れ編
TTITLE2=ゆかな・河本明子/ウサギのミカ・出会い編
TTITLE3=ゆかな・河本明子/ウサギのミカ・別れ編
TTITLE4=川澄綾子・河本明子/カメのアユミ・出会い編
TTITLE5=川澄綾子・河本明子/カメのアユミ・別れ編
TTITLE6=田中理恵・河本明子/キンギョのラン・出会い編
TTITLE7=田中理恵・河本明子/キンギョのラン・別れ編
TTITLE8=野川さくら・河本明子/インコのツバサ・出会い編
TTITLE9=野川さくら・河本明子/インコのツバサ・別れ編
TTITLE10=仁後真耶子・河本明子/ハムスターのクルミ・出会い編
TTITLE11=仁後真耶子・河本明子/ハムスターのクルミ・別れ編
EXTD=
EXTT0=
EXTT1=
EXTT2=
EXTT3=
EXTT4=
EXTT5=
EXTT6=
EXTT7=
EXTT8=
EXTT9=
EXTT10=
EXTT11=
PLAYORDER=
